<svg version="1" xmlns="http://www.w3.org/2000/svg" width="682.667" height="682.667" viewBox="0 0 512.000000 512.000000"><path d="M200 3.9c-.8.3-1.7 1.3-1.8 2.1-1 4.2-1 5 .1 5 .7 0 .6.4-.3 1-1.3.8-1.3 1 0 1 1.1 0 1.1.3.2 1.2-1.4 1.4-1.6 3.2-.4 2.4.8-.5 1 2.6 1.4 21.1.1 4 .4 7.3.8 7.3 1.1 0 .8 6.5-.4 7.2-.8.6-.8.8.1.8.6 0 1 .8.8 1.7-.1 1 0 2.2.3 2.8 1 1.7 1.1 5.5.1 5.5-.6 0-.7.6-.2 1.2 1.3 2.1 1.4 5 .2 4.2-.8-.4-.8-.1-.2 1.2.5 1.1.8 3.1.7 4.6 0 1.6.4 2.8 1 2.8s.4.5-.4 1c-1.2.8-1.2 1-.1 1 .9 0 1 .4.3 1.2-.5.8-.6 2.2-.1 3.3 1.1 2.9 1.1 3.7-.3 2.9-1-.6-1-.4 0 .8 1 1.3 1 1.7 0 2.1-1 .4-1 .8.2 1.6 1.2.9 1.2 1.1-.3 1.7-.9.3-2.4.4-3.2 0-.8-.3-1.5-.1-1.5.4 0 .6-1.1.5-2.7-.1-1.9-.7-2.9-.7-3.1 0-.3.8-1 .8-2.3.1-1.4-.8-1.9-.7-2 .2 0 .7-.4.4-.9-.7-.7-1.7-.9-1.7-.9-.3-.1 2.1-.5 2.2-3.2.8-1.3-.8-1.9-.7-1.9 0 0 .8-.6.8-2 0s-2-.8-2 0c0 .7-.6.8-1.9 0-1.4-.7-2-.7-2.3.1-.3.8-1 .6-2-.5-1.2-1.1-1.9-1.3-2.4-.5-.4.8-.9.7-1.5-.2-.5-.8-.9-.9-.9-.3 0 .6-.7 1.1-1.5 1.1s-1.5-.4-1.5-.9-.9-.4-1.9.2c-1.6.8-2.2.6-3-.7-.6-1-1.1-1.4-1.1-.8 0 1.1-7 1.4-7 .4 0-.3-1.8-.5-4-.4-2.2.1-4-.1-4-.6 0-.4-.9-.6-2-.4-1.1.2-2.2-.1-2.6-.7-.5-.7-.9-.7-1.3.1-.5.7-1.5.6-3.4-.4-1.5-.8-2.5-1.1-2.3-.6.6.9-3.1.8-4-.2-.4-.4-1.6-.7-2.6-.7s-1.8-.5-1.8-1.1c0-.8-.4-.8-1.4 0-1.1 1-1.7.8-2.5-.6-.6-1-1.1-1.3-1.1-.5 0 .9-.5 1-1.9.2-2.4-1.2-4.2.7-2 2.1 1.1.7 1.1.9.1.9s-1 .5-.1 2.1c.7 1.3.7 1.9.1 1.5-.6-.4-1 .2-.9 1.4.1 1.1.5 2 1 2 .4 0 .5.6 0 1.2-1.1 1.9-1.2 3.7-.2 4.4.5.3.6 1.1.2 1.7-1.3 2-1.2 4.1 0 4.9.9.6.9.8-.1.8-.9 0-1 .5-.2 1.9.7 1.4.7 2.2 0 2.6-.8.5-.8 1.1-.1 1.9.7.9.7 1.6-.2 2.5-.9.9-.9 1.4.3 2.1 1.1.7 1.1 1 .2 1-1 0-1 .5-.1 2.1.7 1.3.7 1.9.1 1.5-.6-.4-1 .2-.9 1.4.1 1.1.5 2 1 2s.3.8-.4 1.7c-1.2 1.5-1.2 1.6.1.8s1.3-.7.1.9c-1.3 1.5-1.3 1.9 0 2.7.8.5.9.9.4.9-.6 0-1.1.8-1.1 1.9 0 1.6.7 1.8 4.3 1.6 2.4-.2 5-.8 5.8-1.5 1.1-.9 1.5-1 1.5-.1 0 .7.5.9 1 .6.6-.4.8-1 .6-1.4-.3-.4.9-.6 2.7-.5 1.7.1 3.9-.2 4.8-.6 1-.6 2.1-.5 2.9.3 1 1 1.1.9.5-.2-.6-1.1-.4-1.3.8-.8 1 .4 1.7.1 1.7-.6 0-.8.4-.6 1 .3.5.8 1 1 1 .3 0-.6.8-1 1.8-.9.9.2 2-.2 2.4-.8.5-.7.8-.3.8.9 0 1.5.3 1.6.9.7 1.2-1.9 6.9-2.6 8.9-1 1.1.9 1.4 1 .8 0-.7-1.2 3.2-1.7 9.3-1.2 1.7.1 2.1-.2 1.5-1.2-.6-1-.5-1.1.7-.1s1.8 1 2.9 0c1-1 1.1-.9.5.1-.6 1.2-.3 1.2 1.6.2 1.7-1 2.4-1 2.7-.1.2.6.8 1.1 1.3 1.1.6 0 .8-.3.6-.8-.3-.4.6-.8 1.9-.8 1.4-.1 2.1.2 1.8.8-.4.6.3.5 1.5-.1 1.2-.7 2.7-.9 3.4-.4.6.4 2 .8 2.9.8 1.5.1 1.6-.1.5-1.4-1.1-1.4-.9-1.4 1.3 0 2.5 1.6 5.5 1.5 4.5-.2-.4-.5.1-.6.9-.3.9.3 1.6 1 1.6 1.6 0 .5.5.6 1.1.3.5-.4 2.1-.8 3.5-1 2-.2 2.3.1 2 2.1-.3 1.3 0 2.6.5 2.9.5.4.5 1.4-.2 2.7-.7 1.2-.7 1.8-.1 1.4 1.1-.7 1.1 1.2-.1 3.1-.5.7-.4 1.3.2 1.3 1 0 1 1.8-.2 3.7-.4.6-.2 1.5.4 1.8.5.4.8 1.3.5 2.1-.3.7-.1 1.6.5 2 .6.4.4 1.5-.6 3.1-1 1.4-1.2 2.2-.6 1.8.8-.4 1 .7.7 3.9-.2 2.5 0 4.4.4 4.1.5-.3.5.9-.1 2.7-1.1 4-1.1 4-.1 3.4.8-.5.6 5.8-.2 8.1-.3.7.2 1.3 1.2 1.4 1 0 1.2.3.5.6-.7.2-1.3 1.1-1.3 1.9 0 .9.5 1.2 1.2.8.7-.5.8-.3.2.7-1.2 2-1.2 7.9 0 7.9.5 0 .2.6-.8 1.3-1.6 1.2-1.6 1.4-.2 2.6.9.7 1.3 1.8.9 2.5-1.2 1.8-1.1 5.6.1 5.6.6 0 .5.4-.3.9-1 .7-1.1 1.3-.1 3.1 1.1 2 1 2.2-.4 1.7-1.3-.5-1.5-.3-.8 1.1.5.9.8 2.5.7 3.4-.2 1 .2 1.8.8 1.8.8 0 .9.3.1.8-1 .7-1.4 5.2-.4 5.2.3 0 .6 1.3.6 3 .1 2-.2 2.7-1 2.3-.6-.4-.5.1.3 1 1 1.3 1.1 2 .2 3.1-.8 1-.9 1.6-.1 2.1.6.3.8 1 .5 1.5-.3.5-.1 2 .4 3.4.9 2.1.8 2.4-.6 1.9-1.2-.5-1.4-.3-.8.7 1.3 2.1 1.3 11.4.1 12.2-.8.5-.7.8.1.8.7 0 1.1 1.1.8 2.8-.2 1.6.1 3.5.5 4.3.7 1.1 1.2 1 2.9-.5 1.1-1 1.8-2.3 1.4-2.9-.4-.6 0-.8.8-.5 1.5.5 5.1-2.6 4.1-3.6-.3-.3 0-.6.7-.6s.9-.5.5-1.3c-.5-.7-.1-.7 1.2.3 1 .8 1.6 1.1 1.2.6-.9-1.1 1.4-3.6 2.6-2.8.5.3.7-.2.3-1.1-.3-.9-.3-1.6.1-1.5 1.2.2 4.2-1.4 3.8-2.1-.2-.3.2-1.2 1-1.9 1-.9 1.4-.9 1.4-.1 0 .6.9 0 2.1-1.5 1.1-1.4 1.7-3.1 1.3-3.7-.4-.8 0-.8 1.5 0 1.2.7 2 .8 1.9.4-.4-1.5 2.3-5.3 3.7-5.3.8 0 1.5-.5 1.5-1 0-.6.8-1 1.7-.8 1 .2 1.8-.3 1.8-1.2 0-.9.9-1.5 2.2-1.4 1.5 0 1.9-.4 1.5-1.4-.3-1-.1-1.3.6-.8.6.3 1.5-.2 2.1-1.1.6-1.1 1.1-1.3 1.1-.5 0 1 .4.9 1.6-.2.8-.9 1.9-1.4 2.4-1.1.5.3 1 0 1.2-.6.2-.7 1.8-1.2 3.5-1.3 1.7 0 3.1-.3 3.1-.6-.1-1.7.4-1.9 2.2-1 1.5.8 2 .8 1.8-.1-.3-1.2 3.1-2 8-1.9 1.2 0 2.2-.6 2.2-1.3 0-.8.4-.7 1 .3.5.8 1 1 1 .5 0-1.4 4.3-1.4 5.2-.1.5.7.8.5.8-.4 0-1.3.1-1.3 1 0 .7 1.1 1 1.1 1 .2 0-.8.5-1 1.2-.6.7.5 2.1.9 3 .9 1.4.1 1.5-.1.7-1.2-.9-1-.5-1 2.2.1 2.1.9 4 1.1 5 .6 1-.6 2.6-.4 4.2.5 1.9 1 2.7 1 3 .2.3-.8 1-.7 2.3.5 1.1.9 3.1 1.5 4.7 1.4 2.1-.3 2.7 0 2.3 1.1-.4 1.1-.1 1.1 1.4.3 1.8-1 2.4-.7 2.2 1.1-.1.4.6.5 1.6.2.9-.2 2.6.4 3.7 1.5 1.2 1 2.9 1.8 3.9 1.6 1.2-.2 1.6.2 1.2 1.3-.6 1.4-.4 1.4 1.1.2 1-.7 1.5-1 1.1-.5-.7.8 1.4 3.6 2.6 3.6 1.2 0 4.5 3.4 4 4.2-.3.4.3.5 1.2.1 1.1-.4 1.5-.3 1 .5-.3.6.7 1.8 2.3 2.8 2.3 1.4 2.8 2.1 1.9 3.1-.8 1-.6 1.3.6 1.3 1.5 0 2.1 1.2 1.7 3.3-.1.5.3.6.9.2 1.1-.7 3.1 3.5 2.2 4.9-.3.5.2.7 1 .3 1.2-.4 1.4-.1 1.1 1.4-.3 1-.1 1.9.4 1.9s1.6 2.3 2.3 5c.7 2.8 1.8 5 2.3 5 .6 0 .7.3.4.7-.4.3-.2 1.2.4 2 .9 1 .8 1.3-.1 1.3-1 0-1 .3 0 1.5.7.8.9 1.5.5 1.5s-.2.7.6 1.6c1 1.3 1 1.7-.2 2.5-1.1.7-1.1.9 0 .9.9 0 1.2.8.9 2.5-.3 1.3-.2 2.2.2 2 .3-.2.7 1.8.7 4.5 0 3.3-.4 4.7-1.1 4.3-.8-.5-.8-.3-.1.8.6.8 1 3.9.8 6.9-.1 3-.3 6.5-.3 7.8 0 1.3-.5 3.3-1.1 4.4-.9 1.6-.8 1.9.3 1.3 1-.6 1.1-.5.1.6-.7.7-1.3 2.1-1.3 3.2 0 1-.4 1.5-1 1.2-.7-.4-.7.3 0 2 .5 1.4.6 2.4.1 2.1-.8-.6-2.4 3.2-2.6 6.4 0 .8-.6 1.4-1.2 1.3-.7-.2-1 .6-.8 1.6.2 1.1-.5 2.9-1.6 4.2-1 1.2-1.6 2.6-1.3 3 .3.5 0 .9-.7.9s-.9.3-.6.7c.4.3-.1 1.5-1 2.6-1 1-1.7 2.1-1.5 2.3.7 1.1 0 2.4-1.3 2.4-.8 0-1.4.6-1.2 1.2.1.7-.5 1.2-1.3 1-1.1-.3-1.2-.1-.4.8.9.9.7 1.7-.7 3.4-4 4.5-4.9 5.6-4.9 6.2 0 1.2-2.8 3.3-3.5 2.6-.4-.4-.6 0-.3.8s-.6 2.5-1.9 3.7c-1.2 1.2-2.3 2.7-2.3 3.3 0 .5-.7 1-1.6 1-.8 0-1.3.4-.9.9.3.5-.4 1.2-1.4 1.6-1.3.4-1.8 1.1-1.4 2.2.4 1.1.2 1.4-.5.9-.7-.4-1.2-.2-1.2.4 0 .6-.4.8-1 .5-.9-.6-1.4.8-1.1 2.8.1.5-.3.6-.9.2-.5-.3-1-.1-1 .5s-.4.8-1 .5c-.5-.3-1 .1-1 1s-.4 1.3-1 1c-.5-.3-1 0-1 .8 0 .7-1.1 2-2.5 2.7-1.3.7-2.2 1.7-1.9 2.2.3.4 0 .8-.7.8-.6 0-2.4 1.2-4 2.7-4.5 4.5-5.9 5.4-6.9 4.8-.5-.3-.7 0-.4.8.3.8 0 1.8-.7 2.3-.8.5-1 .3-.5-.7.4-.8-.1-.4-1.2.8-1.1 1.3-2.5 2.3-3 2.3s-1.3.7-1.6 1.6c-.3.8-1 1.3-1.5.9-.5-.3-1.6.4-2.4 1.5-.7 1.1-1.7 1.7-2 1.3-.4-.3-.7.1-.7 1.1 0 .9-.4 1.4-1 1.1-.5-.3-2.1.5-3.5 1.9-2.8 2.8-4.1 3.4-2.9 1.3.5-.6-.7.3-2.5 2.1-1.9 1.8-3.5 3.1-3.8 2.9-.2-.3-1.8.8-3.5 2.4-1.7 1.5-3.5 2.6-4 2.3-.4-.3-.8 0-.8.6s-.4.8-1 .5c-.5-.3-1-.1-1 .5s-.4.8-1 .5c-.5-.3-1 0-1 .8 0 1.3-6.6 4.5-8.3 3.9-.5-.1-.6.2-.3.7.4.5-.3 1.2-1.4 1.6-1.1.4-1.8 1.1-1.5 1.6.3.5-.1.6-.9.3-.9-.3-1.6-.1-1.6.6 0 .6-.4.8-1 .5-.5-.3-1-.1-1 .5s-.4.8-1 .5c-.5-.3-1-.1-1 .5s-.4.8-1 .5c-.5-.3-1-.1-1 .5 0 .7-.6 1-1.4.7-.7-.3-2.1.4-3 1.4-.9 1.1-2.1 1.7-2.6 1.4-.6-.3-1-.1-1 .4 0 .6-.8 1.1-1.8 1.1s-2.8.9-4 2c-1.2 1.2-2.2 1.8-2.2 1.4 0-.3-.6-.1-1.3.5-.8.6-1.7.8-2 .4-.4-.3-.7-.1-.7.6s-.4.9-1 .6c-.5-.3-1-.1-1 .4 0 .6-.7 1.1-1.5 1.1-.9 0-1.8.6-2.1 1.4-.3.9-1.2 1.2-2.1.9-.9-.4-1.4-.2-1 .3.3.6-.3 1.6-1.5 2.3-1.6 1-1.9 1-1.2-.1.6-1.1.5-1.1-.9 0-.9.8-2.1 1.1-2.7.7-.5-.3-1-.2-1 .4 0 .6-1.6 1.3-3.5 1.7-2.2.4-3.2 1-2.8 1.8.4.7.1.7-.8-.1-1.3-1-1.6-1-1.6.2 0 .8.4 1.5.8 1.5.5 0 .6.7.3 1.5-.4.8-.1 1.5.6 1.5.6 0 .8.4.5 1-.3.5-.2 1 .4 1 .5 0 .8.9.6 2-.2 1.1.1 2 .6 2 .6 0 .8.4.5.9-.3.5.1 1.2 1 1.5.8.3 1.2 1.1.8 1.7-.3.6-.1 1.5.5 1.9.7.4 1.3 1.3 1.4 2.1.2.8.7 2 1.1 2.8.7 1 .5 1.2-.5.7-.8-.4-.4.1.9 1.2 1.5 1.4 1.8 2.2 1 2.5-1 .4-1 .6 0 .6.6.1 1.2 1 1.2 2 0 1.1.5 2.3 1 2.6.6.3 1 1.5 1 2.6s.7 2.2 1.5 2.5c.9.4 1.5 1.1 1.4 1.8-.3 2.5.2 3.7 1.3 3 .6-.4.8-.3.4.4-.5.8 1.9 6.1 4 9.1.2.2 1.1-.4 2-1.3.9-1 2.3-1.5 3.1-1.2.8.3 1.1.1.8-.4-.3-.5.6-1.2 2-1.6 1.4-.3 2.2-1.1 1.8-1.7-.4-.6 0-.8 1-.4 1 .3 1.7.2 1.7-.3 0-.6.9-1 2-1s2-.5 2-1.1c0-.5.4-.8.9-.5.5.3 1.2-.1 1.5-1 .4-.9 1.3-1.4 2.1-1 .8.3 1.5.2 1.5-.2s1.2-1.6 2.7-2.6c1.6-1.2 2.3-1.4 1.8-.5-.5.8-.1.7 1.2-.4 1.1-.9 2.3-1.4 2.8-1 .4.5.5.2.1-.4-.4-.8-.1-1.3.9-1.3.8 0 1.8-.7 2.1-1.5.4-.8 1-1.2 1.5-.9.5.3 1.2-.2 1.5-1.1.5-1.3.9-1.3 2.2-.3 1.3 1.1 1.4 1.1.8 0-.5-.8.3-1.6 2.4-2.4 2.3-.8 2.8-1.3 1.8-1.9-1-.7-.8-.9.7-1 1.1-.1 2.3-.1 2.7 0 .4 0 1.2-.8 1.8-1.9.6-1.1 1.5-1.8 2-1.5.5.3 1.3-.3 1.9-1.2.6-1 1.1-1.4 1.1-.8 0 .5.7-.1 1.6-1.4 1.1-1.5 2.3-2.1 3.5-1.8 1.1.3 1.7.2 1.4-.3-.6-.9 1.4-2.7 3.5-3.2.8-.2 2.3-1.3 3.3-2.6 1-1.2 2.3-2 2.8-1.7.5.4.9.2.9-.3 0-.6 1.6-1.9 3.6-3.1 2.1-1.3 3.2-2.6 2.8-3.3-.4-.7-.3-.8.4-.4 1.2.7 2.9-.3 6-3.7.9-.9 2-1.7 2.4-1.7.8 0 5.5-4.1 12.4-10.7 1.8-1.8 3.8-3.3 4.4-3.3.6 0 .8-.5.5-1-.3-.6.1-1 1-1 .8 0 1.8-.7 2.1-1.5.4-.8 1.3-1.5 2.1-1.5s1.2-.4.9-.9c-.3-.5.5-1.6 1.8-2.5 3.6-2.3 14.1-13 13.8-13.9-.1-.5.2-.6.7-.2.6.3 2.1-1 3.3-2.9 1.3-2 2.9-3.6 3.6-3.6.7 0 1-.5.7-1-.3-.6.1-1.3.9-1.6.9-.3 1.6-1.3 1.6-2.1 0-1.2.3-1.3 1.3-.5s1.3.6 1.4-.9c.2-2.3 2.8-5.1 3.8-4.1.5.4.5.2.1-.5s.2-1.7 1.4-2.3c1.1-.6 2-1.9 2-3s.9-2.4 2-3c1.1-.6 1.7-1.6 1.4-2.2-.5-.7-.2-.9.9-.5s1.4.2 1-.9c-.3-.7 0-1.4.7-1.4s1-.7.6-1.7-.4-1.4 0-1c.4.4 1.6-.7 2.6-2.4 1-1.6 2.3-2.7 2.8-2.4.5.3.7 0 .4-.8-.3-.8.2-2.2 1.1-3.1.9-.9 1.3-1.6.8-1.6-.4 0-.1-.5.7-1 .8-.5 1.5-1.7 1.5-2.7.1-1 .6-1.7 1.3-1.6.7.2 1.1 0 1-.5-.1-.4.3-1.7 1-2.9.7-1.3 1-2.3.7-2.3-.4 0 .1-.7.9-1.6.9-.8 1.4-2 1.1-2.5-.4-.5 0-.9.8-.9s1.5-.6 1.4-1.3c-.1-3.2.4-4.8 1.3-4.2.6.4 1 .3.9-.2-.4-2.4.2-5.3 1.1-4.8.9.5 1.5-2.3 1.1-4.8 0-.4.4-.7 1-.7.5 0 .7-.5.4-1-.3-.6-.1-1 .5-1s.8-.5.5-1c-.4-.6-.1-1.8.7-2.7 1.1-1.4 1.1-1.6-.1-.8-.8.5-.4-.7.9-2.5 2.2-3.1 2.2-3.3.4-2.7-1.6.6-1.7.5-.4-.5.8-.7 1.7-2.4 1.8-3.8.2-1.4.9-3.1 1.5-3.8.8-1 .7-1.6-.4-2.3-.9-.6-1-.9-.2-.9.7 0 1-.7.7-1.5-.4-.9 0-1.5.7-1.5 1.1 0 1.1-.3-.1-1-.8-.5-1-1-.4-1 .7 0 1.5-.7 1.8-1.6.3-.8.2-1.2-.4-.9-.5.3-.8-.4-.7-1.5.1-1.1.5-2 1-2 .4 0 .5-.6 0-1.3-1.2-1.9-1.2-3.8-.1-3.1.6.4.8-.2.3-1.6-.5-1.6-.4-2 .5-1.5s.9.3.2-1.1c-.5-1.1-.7-2.5-.4-3.3.3-1 0-1.1-.9-.5-1.1.6-1.2.5-.3-.7.9-1.1 1.3-9.4.5-9.4-.1 0-.4-1.2-.6-2.8-.3-1.9 0-2.5.8-2 .7.3.3-.4-.8-1.7-1.2-1.4-1.4-2-.5-1.5 1.3.7 1.3.6.2-.7-1-1.3-1-1.8-.1-2.4.9-.5.9-1-.2-1.8-.8-.6-1.5-2.2-1.7-3.6-.5-4.3-.8-5.5-1.6-6.9-.5-.8-.3-1.7.5-2.2 1.1-.7 1.1-.9-.3-.9-.9 0-2-.5-2.4-1.2-.4-.7-.3-.8.4-.4s1.2.2 1.2-.3c0-.6-.4-1.1-1-1.1-.5 0-.7-.6-.4-1.4.3-.8 0-1.7-.5-2.1-.6-.3-.9-1.1-.6-1.6.4-.5.1-.9-.4-.9-.6 0-1-.3-1-.8.3-2-.2-3.2-1.3-2.6-.7.4-.8.3-.4-.5.4-.6.2-1.9-.6-2.8-1.1-1.4-1.1-1.6 0-.9 1.1.7 1.2.4.2-1.3-.6-1.2-1.8-2.5-2.6-2.8-1.1-.4-1.2-.9-.3-1.9.9-1.1.8-1.4-.5-1.4-1 0-1.4-.5-1.1-1 .3-.6.1-1-.4-1-.6 0-1.1-.7-1.1-1.5s-.5-1.5-1.1-1.5c-.5 0-.8-.4-.5-.9.3-.5-.1-1.1-.9-1.5-.8-.3-1.5-1.2-1.5-2.1 0-.8-.4-1.5-1-1.5-.5 0-1-.5-1-1.1 0-.7-1.2-2.2-2.6-3.5-1.4-1.4-2.2-2.9-1.8-3.6.4-.6.3-.8-.3-.5-.5.3-1.5-.3-2.3-1.3-.8-1-1.8-1.6-2.3-1.3-.6.3-.7.1-.3-.6.4-.6 0-1.4-.8-1.7-.9-.3-1.3-1-1-1.5.5-.8-.3-1.1-2.3-.8-.3 0-1-.6-1.5-1.5s-1.5-1.3-2.1-1c-.7.4-.9.4-.5-.1.9-1-1.2-3-4-3.9-1.2-.4-2-1.1-1.7-1.6.5-.7-3.1-2.3-4.8-2.1-.4.1-1-.6-1.3-1.4-.3-.8-1-1.2-1.5-.9-.5.3-.9.1-.9-.3 0-.5-.9-1.4-2.1-2.1-1.7-1.1-2-1.1-1.3 0 .4.7-.2.5-1.3-.5-1.1-.9-2.3-1.4-2.6-1-.4.3-.7 0-.7-.7s-.3-1-.7-.7c-.3.4-1.2.2-2-.4-.7-.6-1.3-.8-1.3-.4s-.7.2-1.5-.5-1.5-.9-1.5-.5c0 .5-1 0-2.2-1.1-1.2-1-1.8-1.3-1.4-.7.4.7.2 1.3-.3 1.3-.6 0-1.1-.3-1.1-.8 0-.4-1.1-1.2-2.5-1.9-1.4-.6-2.3-.8-2-.3.3.4-.2 1-1 1.3-1 .4-1.2.1-.8-1.1.3-.9.3-1.4-.2-1-.4.4-1.7.3-2.8-.3-1.5-.9-1.8-.8-1.1.3.6 1 .5 1.1-.8.1-.8-.7-1.8-1-2.1-.7-.3.4-1.4.3-2.4-.1-2.1-.8-10.2-1.7-15.3-1.6-1.9.1-4.6.1-6 0-4.9-.2-11.5.7-13.1 1.7-.7.4-.9.3-.6-.4.5-.6 0-.8-1.3-.5-1.1.3-1.7.9-1.5 1.3.3.5-.8.5-2.5 0-1.8-.5-3-.5-3 .1 0 .5-.3.8-.7.8-.5-.1-1.1 0-1.5.1-2 .6-3.4.5-4-.5-.5-.6-.8-.3-.8.7 0 1.1-.7 1.5-2.5 1.3-1.4-.1-2.8.2-3.1.7-.3.4-1 .5-1.6.2-.7-.5-.8-.2-.3.6.6 1 .3 1.2-1.3.8-1.2-.4-2.5-.1-2.9.4-.4.7-.1.8.7.3.8-.5 1.1-.4.6.3-.7 1.2-3.7.5-4.8-1.2-.4-.5-.2-1.8.3-2.7.6-1.2.5-1.9-.4-2.2-.6-.3-.3-.6.7-.6 2-.1 2-.1 0-1.6-1-.8-1.4-1.5-.7-1.5s1-.7.6-1.6c-.3-.9 0-2 .8-2.5 1.2-.7 1.2-.9-.1-.9-1.2 0-1.3-.2-.1-.9.9-.6 1.1-1.4.4-2.6-.6-.9-.7-3.4-.3-5.5.4-2.4.3-4.3-.3-4.9-.8-.8-.8-1.1 0-1.1.7 0 .8-1.4.3-4-.5-2.7-.4-4 .4-4 .6 0 .4-.5-.4-1s-1-1-.4-1c1.3 0 1.3-4.8 0-6.9-.7-1-.6-1.2.4-.6s1.2.4.7-.8c-.3-.9-.2-1.9.4-2.2.5-.4.6-1.3.1-2.2-1-1.8-.3-6.5.8-5.8.5.3 1.1.1 1.4-.4.3-.5 1.5-.7 2.6-.4 1.1.3 1.7 1 1.3 1.7-.4.7-.1.6.9-.1.8-.7 1.8-1 2.2-.6.4.4 1.1.1 1.6-.7.8-1.2 1-1.2 1-.1 0 .7.6 1.1 1.5.8.8-.4 1.7-.1 2.1.5.4.7.9.6 1.4-.2.6-.9 1.2-.9 3 0 1.5.8 2 .8 1.5.1-.9-1.5 7.3-.5 9.4 1.2.8.6 1.2.7.8.1-.7-1.2 7.1-1.4 9-.1.6.4 1.5.2 1.9-.4.5-.8.3-.9-.6-.4-.9.5-1.1.4-.6-.4.5-.8 1.2-.9 1.9-.3.7.5 2.2.8 3.5.6 1.2-.2 2.2.1 2.2.7 0 .8.4.8 1.4 0 1-.8 1.6-.9 2.1-.1.5.9 2.9.9 6-.1.6-.2 2.1.3 3.4 1 1.4.8 2.1.9 1.7.2-.4-.6 0-1.1.9-1.1s1.4.3 1.2.7c-.3.5 2.7.8 6.6.9 4 0 8.1.3 9.2.6 1.1.3 2.6.1 3.3-.5.8-.6 1.2-.6 1.2.3 0 1 .3 1 1.5 0 1-.8 1.5-.9 1.5-.2s2.4 1 6.4.9c3.5-.1 6.2.1 6 .5-.6 1 1.9 1.6 3.6.8 2.4-1 4.5-.5 4.2 1-.1 1 .3.8 1.3-.4.8-1.1 1.5-1.5 1.5-.9s.9 1.3 2 1.6c1.2.3 1.8.1 1.4-.5-.4-.6.3-.5 1.5.1 1.6.9 2.1.9 2.1 0 0-.8.4-.8 1.3-.1.6.5 3.1.9 5.4.8 2.3-.1 4 .1 3.7.5-.2.4.8.6 2.3.5l2.8-.3v-8.2c0-6.8.2-8 1.5-7.6 1.2.4 1.1.2-.2-.8-1.1-.9-1.3-1.8-.7-2.9.6-1 .6-1.9 0-2.3-.6-.3-.8-1.2-.5-1.9.3-.8 0-1.7-.6-2.1-.8-.5-.8-1.1.1-2.1.6-.8.9-2.3.6-3.4-.3-1.1 0-2 .6-2 .8 0 .8-.3.2-.8-1.3-.9-1.3-11.2-.1-11.2.6 0 .5-.5-.2-1.2s-.8-1.7-.1-3c.7-1.2.6-1.8-.1-1.8-.6 0-.9-.3-.7-.8.3-.4-.1-1.3-.9-2s-1.4-.9-1.4-.4-1 .8-2.2.7c-1.3-.1-2.6.3-3 .9-.5.7-.8.6-.8-.4 0-1.3-.1-1.3-1 0s-1.1 1.3-2 0c-.7-1.1-1-1.1-1-.2 0 .7-.4 1-1 .7-.5-.3-1 0-1 .7 0 .9-.3.9-1-.2-.9-1.3-1-1.3-1 0s-.1 1.3-1 0-1-1.3-1 0-.1 1.3-1 0-1-1.3-1 0c0 .9-.3 1.1-.8.5-.4-.6-1.5-1.1-2.5-1.1-1.2-.1-1.5.2-.8 1s-1 1.1-6.5 1c-4.5 0-7.4.4-7.4 1 0 .7-.3.8-.8.1-1-1.4-3.2-1.7-3.2-.4 0 .5-.5.7-1.1.3-.6-.3-1.5 0-2 .7-.7 1.1-.9 1.1-.9.1 0-.7-.5-1-1-.7-.6.4-1.8.1-2.7-.7-1.4-1-1.5-1-.9 0 .5.9.3 1.3-.5 1.1-3.2-.4-6 .2-5.4 1.1.3.6-.1.7-.9.4-.9-.3-1.3-1-1-1.5.3-.5-.2-.6-1-.3-.9.3-1.3 1-1 1.5.3.5-.2.6-1 .3-.9-.3-1.3-1.1-.9-1.8.4-.8.2-.8-.7.1-.7.6-1.9.9-2.8.6-.9-.4-1.3-.2-.9.4.3.5 0 1-.8 1s-1.2-.5-.8-1c.3-.5-.2-.5-1.3 0-2.2 1.1-3.4 1.1-5.1 0-.6-.4-1.5-.3-1.8.3-.5.8-1.1.8-2 0-.9-.7-1.5-.8-1.9-.1-.4.6-1.4.7-2.3.4-.9-.4-1.4-.2-1.1.3.4.5-3.7.8-9.8.8-5.7-.1-10.4.1-10.4.5 0 .3-1.3.6-3 .6-1.6 0-3-.4-3-.8s-.9-.3-2 .3c-1.5.8-2 .8-2-.2 0-.9-.3-.9-1 .2-.8 1.2-1 1.2-1 .1 0-1.1-.3-1.1-1.5-.1s-1.5 1-1.5-.1c0-1.2-.2-1.2-.9 0-.6.9-1.1 1-1.5.2-.5-.7-1.5-.7-3.1-.1-1.7.7-2.5.6-2.5-.1 0-.8-.5-.7-1.5.1-1 .9-1.5.9-1.5.1 0-.6-.3-1-.7-1-2.1.3-2.4-.3-1.2-1.8 1-1.1 1-1.4.2-.9-.8.4-1.3.1-1.3-.9 0-.9.5-1.3 1.1-.9.8.5.8.1 0-1.4s-.8-2.2.2-2.5c.9-.4.9-.6 0-.6-1.6-.1-1.7-3.7-.3-4.6.8-.5.8-1.1 0-2-.7-.9-.6-1.6.5-2.5 1.2-1 1.3-1.6.4-2.6-.6-.8-.8-1.4-.3-1.4s.2-.5-.6-1-1-1-.4-1 1-1.7.9-4c-.1-3.1.2-4 1.4-4 1.4-.1 1.3-.2-.2-1.1-1.3-.8-1.5-1.4-.7-3 .7-1.2.7-1.9.1-1.9s-.8-.7-.5-1.5c.4-.8 1.1-1.2 1.7-.8.6.4.7.1.1-.8-1.3-2-1.3-7.2-.1-8.7.7-.8.7-1.6.1-2-1.2-.9-1.7-3.5-.5-2.8 1.2.8.9-5.7-.4-6.6-.6-.5-.5-.8.3-.8.7 0 1-.5.7-1-.3-.6 0-1 .7-1 .9 0 .9-.3-.2-1-1-.6-1.1-1-.3-1 .9 0 1-.7.5-2.3-1-2.7-.5-5.7 1-5.7.6 0 .5-.7-.3-1.7-1.2-1.5-1.2-1.6.1-.8s1.3.7.1-.9c-1.3-1.5-1.3-1.9 0-2.7 1.1-.7 1.1-.9 0-.9s-1.1-.3-.1-1.5 1-1.5 0-1.5c-.9 0-1-.3-.1-1.4.9-1.1.6-1.3-1.4-1.1-1.4.2-2.7-.1-3.1-.6-.3-.5-1.3-.5-2.5.1-1.4.8-1.9.7-1.9-.2 0-.8-.3-.9-.8-.3-.9 1.2-5.5 1.9-4.8.7.3-.5-.1-.9-.9-.9s-1.5.3-1.5.6-1.1.6-2.5.6-2.5-.5-2.5-1c0-.6-.4-.4-.9.4-.6.8-1.4 1-2.2.5-1.8-1.1-4-1.2-6.1-.1-1.2.5-1.8.4-1.8-.5 0-.8-.3-.9-.8-.3-1 1.4-4.5 1.6-5.4.2-.5-.8-1.1-.8-1.5-.2-1.1 1.4-5.3 1.4-5.3.1 0-.6-.4-.5-.9.3-.7 1.1-1.3 1.2-2.3.4-.7-.6-2-.8-2.8-.4z"/></svg>